<?xml version="1.0" encoding="utf-8"?>
<!-- Generator: Adobe Illustrator 27.9.0, SVG Export Plug-In . SVG Version: 6.00 Build 0)  -->
<svg version="1.1" id="Layer_1" xmlns="http://www.w3.org/2000/svg" xmlns:xlink="http://www.w3.org/1999/xlink" x="0px" y="0px"
	 viewBox="0 0 841.9 595.3" style="enable-background:new 0 0 841.9 595.3;" xml:space="preserve">
<style type="text/css">
	.st0{fill:#A4C23C;}
</style>
<g>
	<path d="M188.2,287.5c5-6.9-7.5-16.6-12.1-22.4c-4.6-5.8-12.2-16-12.2-23.8c0-7.8,5.7-11,11.1-11c5.5,0,8.9,4.3,8.9,10.6
		s-5.8,11-3,13.3c0.8,0.7,5,2.1,9.6-5.5c4.6-7.6,6.3-15,0.3-21.9c-6-6.9-20.6-6.6-26.7-3.1c-6,3.5-12.4,8.6-12.4,19.4
		s11.4,22.9,14.1,25.8c2.7,2.8,11,10.1,10,12.9c-1,2.8-11.6,3.1-19-1.9c-7.3-5-10.6-7.4-13.1-6.3c-2.6,1.1-8,6.3,6.9,12.5
		C165.6,292.2,183.2,294.4,188.2,287.5z"/>
	<path d="M259.6,231.7c-1.7-1.2-3.5-2.1-5.6-2.3c-1.6-0.1-3.4,0.3-4.6,1.3c-1.2,1-2.2,2.6-3.8,3c-0.4,0.1-0.8,0.1-1.1-0.2
		c-0.2-0.3-0.2-0.6-0.2-1c0.5-7.9,2.1-15.7,4-23.3c2.9-11.7,6.8-19.6,12.6-30.1c1.5-2.8-1.3-5.2-3-6.9c-1.8-1.8-4-1.5-5.7-0.2
		c-0.5,0.4-1,0.8-1.4,1.3c-6.5,8.1-8.6,15.8-10.6,25.8c-2.9,14.2-5.4,28.5-7.8,42.8c-0.9,5.4-1.9,10.9-5,15.6
		c-3.2,4.9-6.1,10.1-8.8,15.3c-5.7,10.7-10.7,21.8-15.3,33c-8.8,21.6-15.3,43.8-19,66.8c-3,18.7-6.5,40.6,0.6,58.9
		c2.3,6,6.2,1.4,10.7-7.9c4.5-9.2,20.2-59.1,22-68.5c1.8-9.4,11.2-40.1,14.3-53.8c3.1-13.6,7-27.8,10.6-40.8
		c3.6-13,8.5-14.9,10.7-14.9s4.4,2.8,4.4,8.8c0,10.1-9.6,15.9-10.8,18.8c-1.2,2.8,2.3,7.2,5.9,9c6.9,3.3,11.1-4.7,13.9-9.9
		c3.7-7,5.6-15,4.1-22.9C269.5,242.5,265.4,235.7,259.6,231.7z M223.4,285.7c0,0-2.9,24-8.4,48.7c-5.4,24.8-12,57.6-15.9,58.3
		c-3.9,0.7-1-37.9,5.3-60.1C210.7,310.4,223.7,278.4,223.4,285.7z"/>
	<path d="M361.6,236.1c-8.3-4.1-19.3,1.9-25.9,6.8c-7.2,5.3-13.5,12.1-18.7,19.3c-0.5,0.7-1,1.5-1.2,2.3c-0.2,0.8-0.1,1.8,0.4,2.5
		c0.5,0.5,1.2,0.8,1.9,0.8c2.4,0.2,4.6-1.6,6.4-2.9c6.1-4.6,11.5-10.1,17.7-14.6c7.3-5.5,9.4,1.9,5.1,7.5c-4.3,5.7-25.6,21-33.8,21
		c-8.2,0-7.3-11.9-5.5-17.3c1.8-5.4-5.1-6.2-9.1-6.6c-2.9-0.3-4.2,2.1-5.3,4.3c-0.4,0.7-0.7,1.5-1.1,2.2c-1,2.1-1.9,4.3-2.6,6.5
		c-1.2,3.9-1.8,8.5-0.4,12.4c2.8,7.7,10.2,12.1,19.3,12.1s20.2-4.3,31.6-11.2c5.1-3.1,9.9-6.8,14.3-10.9
		c6.9-6.4,16.2-15.7,13.6-25.9C367.3,241,365,237.8,361.6,236.1z"/>
	<path d="M593.4,244.8c-0.8-3-2.7-5.7-5.4-7.4c-3.4-2.2-7.6-2.8-11.6-2.1c-4.6,0.7-8.9,2.9-12.8,5.3c-7.8,4.8-14.6,11.2-19.8,18.7
		c-1,1.4-1.9,2.9-2.3,4.6c-0.3,1.5-0.2,3.4,1.6,4c0.5,0.2,1,0.2,1.5,0.2c1.5-0.2,2.7-1.2,3.9-2.2c3.9-3.3,7.7-6.5,11.6-9.8
		c2.1-1.8,4-3.7,6.3-5.2c2-1.4,6.1-4.1,8.1-1.5c0.7,0.9,0.9,2,0.7,3.1c-1.2,5.5-5.9,9.2-10.3,12.5c-6.2,4.7-12.4,9.5-19.6,12.4
		c-2.1,0.8-4.3,1.5-6.6,1.5c-2.1,0-4.2-0.7-5.6-2.2c-1.7-1.8-2.2-4.4-2-6.9c0.3-2.4,1.2-4.8,2-7.1c0.4-1.2,0.8-2.4,0.6-3.6
		c-0.3-2.2-2.6-2.8-4.4-3.4c-0.7-0.3-1.4-0.4-2.2-0.5c-1.4-0.2-3.1-0.6-4.6,0c-1.4,0.6-2.3,1.9-3,3.2c-0.6,1-1.1,2-1.6,3
		c-0.9,1.9-1.7,3.8-2.3,5.8c-1.4,4.5-2.1,9.5-0.3,13.9c3,7.1,11.2,9.9,18.2,10.4c10.1,0.7,19.7-3.1,28.4-7.8
		c10.2-5.6,19.6-12.9,26.4-22.4C592.1,256.5,594.9,250.6,593.4,244.8z"/>
	<path d="M448.9,283.6c-15.1,3.3-28.2,2.4-32.4-2c-2.9-3.1-0.6-5.9,2.1-8.2c6.9-5.8,15.1-9.8,22.5-14.9c7.2-4.9,14.1-10.4,19.8-17
		c4.6-5.3-1.9-8.6-6.6-9.6c-6.1-1.4-12.7-0.5-18.8,0.7c-20.9,4.2-33.6,21.4-34,18.8c-0.4-2.6-0.4-33.9-0.4-48.6
		c0-14.7,0-31.8-4.1-31.8s-6.1,4.1-7.3,10.2c-0.2,0.9-0.3,1.9-0.4,2.8c-0.3,5,0.6,15,1.3,20c0.2,1.5,0.4,3,0.5,4.5
		c0.5,6.7,0.4,13.5-0.8,20.1c-1.8,10.5-5,21.2-9.7,30.8c-4.2,8.6-6,19.9-4.9,29.4c0.1,0.6,0.2,1.3,0.5,1.8c0.4,0.6,1.2,0.8,1.9,1
		c3.6,1,7.1,0.6,10.7,0.6c2,0,3.8-0.9,5.5-1.8c1.2-0.7,3.8-2.8,5.3-2.4c0.3,0.1,0.5,0.3,0.8,0.4c0.5,0.4,1.1,0.7,1.6,1
		c10.2,6,23,6.4,34.5,6.4c33,0,67.5-12.6,64.6-19.5C498.3,269.5,464,280.3,448.9,283.6z M423.9,251.7c2.2-1.5,4.5-3,7-4.2
		c2-1,4.8-2.3,7-1.7c0.3,0.1,0.6,0.3,0.7,0.7c0.1,0.6-0.5,1.1-1.1,1.3c-3.7,1.8-7.4,3.7-10.9,5.8c-7.8,4.6-15,10-22.7,14.8
		C399.5,271.1,409.8,261.4,423.9,251.7z"/>
	<path class="st0" d="M628.1,201.9c0.4-0.7,0.9-1.3,1.4-1.9c5.7-5.7,16.2-2.6,20.4,3.4c5,7.1-6,22.9-14.4,19c-2.3-1.1-4-3.2-5.4-5.4
		c-1.6-2.6-3-5.4-3.3-8.5C626.6,206.2,627,203.8,628.1,201.9z"/>
	<path class="st0" d="M620.4,262.5c0-0.3,0.1-0.7,0.2-1c1.1-4.7,7.1-9.3,12.1-8.3c4.3,0.8,5.8,6.9,4.7,11.9
		c-1.1,5.1-7.6,8.1-12.3,5.9C621.9,269.5,620,265.9,620.4,262.5z"/>
	<path class="st0" d="M675.4,175.1c-0.4-0.5-0.9-1-1.3-1.4c-2.4-2.5-5.5-6-3.4-9.7c5.3-9.2,16.3,5.6,19,9.9
		c6.7,10.7,10.1,22.8,11.1,35.3c1.7,20-1.9,40-8.9,58.7c-0.7,1.9-1.5,3.9-2.3,5.8c-7.3,17.8-17.8,34.3-29.3,49.8
		c-10.9,14.8-22.8,29-36.5,41.2c-2.8,2.5-5.9,4.8-9.5,6.1c-3.2,1.2-7,1.2-9.9-0.7c-0.2-0.2-0.5-0.3-0.6-0.6c-0.3-0.5-0.2-1.1,0-1.6
		c1.7-5.3,6.2-8.7,10.2-12.3c4.3-3.8,8.6-7.7,12.7-11.7c13.5-13.4,25-28.6,35.4-44.4c9.9-15.1,17.8-31.7,22-49.3
		c2.1-8.8,3.3-17.9,3.6-26.9c0.3-9.1,0.5-18.8-1.6-27.7C684.2,188.1,680.5,180.9,675.4,175.1z"/>
</g>
</svg>
