<?xml version="1.0" encoding="UTF-8" standalone="no" ?>
<!DOCTYPE svg PUBLIC "-//W3C//DTD SVG 1.1//EN" "http://www.w3.org/Graphics/SVG/1.1/DTD/svg11.dtd">
<svg xmlns="http://www.w3.org/2000/svg" xmlns:xlink="http://www.w3.org/1999/xlink" version="1.1" width="1080" height="1080" viewBox="0 0 1080 1080" xml:space="preserve">
<desc>Created with Fabric.js 5.2.4</desc>
<defs>
</defs>
<g transform="matrix(1 0 0 1 540 540)" id="f0ef5672-bd0b-4df5-9130-0cdf2133aadd"  >
<rect style="stroke: none; stroke-width: 1; stroke-dasharray: none; stroke-linecap: butt; stroke-dashoffset: 0; stroke-linejoin: miter; stroke-miterlimit: 4; fill: rgb(255,255,255); fill-rule: nonzero; opacity: 1; visibility: hidden;" vector-effect="non-scaling-stroke"  x="-540" y="-540" rx="0" ry="0" width="1080" height="1080" />
</g>
<g transform="matrix(1 0 0 1 540 540)" id="a037a098-6b80-406d-ae53-c649da07dddf"  >
</g>
<g transform="matrix(1 0 0 1 521.38 519.05)"  >
<g style="" vector-effect="non-scaling-stroke"   >
		<g transform="matrix(1 0 0 1 -253.28 -41.1)"  >
<path style="stroke: none; stroke-width: 1; stroke-dasharray: none; stroke-linecap: butt; stroke-dashoffset: 0; stroke-linejoin: miter; stroke-miterlimit: 4; fill: rgb(0,0,0); fill-rule: nonzero; opacity: 1;" vector-effect="non-scaling-stroke"  transform=" translate(-167.62, -256.52)" d="M 188.2 287.5 C 193.2 280.6 180.7 270.9 176.1 265.1 C 171.5 259.3 163.9 249.10000000000002 163.9 241.3 C 163.9 233.5 169.6 230.3 175 230.3 C 180.5 230.3 183.9 234.60000000000002 183.9 240.9 C 183.9 247.2 178.1 251.9 180.9 254.20000000000002 C 181.70000000000002 254.9 185.9 256.3 190.5 248.70000000000002 C 195.1 241.10000000000002 196.8 233.70000000000002 190.8 226.8 C 184.8 219.9 170.20000000000002 220.20000000000002 164.10000000000002 223.70000000000002 C 158.10000000000002 227.20000000000002 151.70000000000002 232.3 151.70000000000002 243.10000000000002 C 151.70000000000002 253.90000000000003 163.10000000000002 266 165.8 268.90000000000003 C 168.5 271.70000000000005 176.8 279.00000000000006 175.8 281.8 C 174.8 284.6 164.20000000000002 284.90000000000003 156.8 279.90000000000003 C 149.5 274.90000000000003 146.20000000000002 272.50000000000006 143.70000000000002 273.6 C 141.10000000000002 274.70000000000005 135.70000000000002 279.90000000000003 150.60000000000002 286.1 C 165.6 292.2 183.2 294.4 188.2 287.5 z" stroke-linecap="round" />
</g>
		<g transform="matrix(1 0 0 1 -194.92 4.95)"  >
<path style="stroke: none; stroke-width: 1; stroke-dasharray: none; stroke-linecap: butt; stroke-dashoffset: 0; stroke-linejoin: miter; stroke-miterlimit: 4; fill: rgb(0,0,0); fill-rule: nonzero; opacity: 1;" vector-effect="non-scaling-stroke"  transform=" translate(-225.98, -302.57)" d="M 259.6 231.7 C 257.90000000000003 230.5 256.1 229.6 254.00000000000003 229.39999999999998 C 252.40000000000003 229.29999999999998 250.60000000000002 229.7 249.40000000000003 230.7 C 248.20000000000005 231.7 247.20000000000005 233.29999999999998 245.60000000000002 233.7 C 245.20000000000002 233.79999999999998 244.8 233.79999999999998 244.50000000000003 233.5 C 244.30000000000004 233.2 244.30000000000004 232.9 244.30000000000004 232.5 C 244.80000000000004 224.6 246.40000000000003 216.8 248.30000000000004 209.2 C 251.20000000000005 197.5 255.10000000000005 189.6 260.90000000000003 179.1 C 262.40000000000003 176.29999999999998 259.6 173.9 257.90000000000003 172.2 C 256.1 170.39999999999998 253.90000000000003 170.7 252.20000000000005 172 C 251.70000000000005 172.4 251.20000000000005 172.8 250.80000000000004 173.3 C 244.30000000000004 181.4 242.20000000000005 189.10000000000002 240.20000000000005 199.10000000000002 C 237.30000000000004 213.3 234.80000000000004 227.60000000000002 232.40000000000003 241.90000000000003 C 231.50000000000003 247.30000000000004 230.50000000000003 252.80000000000004 227.40000000000003 257.50000000000006 C 224.20000000000005 262.40000000000003 221.30000000000004 267.6000000000001 218.60000000000002 272.80000000000007 C 212.90000000000003 283.50000000000006 207.90000000000003 294.6000000000001 203.3 305.80000000000007 C 194.5 327.4000000000001 188 349.6000000000001 184.3 372.6000000000001 C 181.3 391.30000000000007 177.8 413.2000000000001 184.9 431.50000000000006 C 187.20000000000002 437.50000000000006 191.1 432.90000000000003 195.6 423.6000000000001 C 200.1 414.4000000000001 215.79999999999998 364.50000000000006 217.6 355.1000000000001 C 219.4 345.7000000000001 228.79999999999998 315.00000000000006 231.9 301.30000000000007 C 235 287.70000000000005 238.9 273.50000000000006 242.5 260.50000000000006 C 246.1 247.50000000000006 251 245.60000000000005 253.2 245.60000000000005 C 255.39999999999998 245.60000000000005 257.59999999999997 248.40000000000006 257.59999999999997 254.40000000000006 C 257.59999999999997 264.50000000000006 247.99999999999997 270.30000000000007 246.79999999999995 273.20000000000005 C 245.59999999999997 276.00000000000006 249.09999999999997 280.40000000000003 252.69999999999996 282.20000000000005 C 259.59999999999997 285.50000000000006 263.79999999999995 277.50000000000006 266.59999999999997 272.30000000000007 C 270.29999999999995 265.30000000000007 272.2 257.30000000000007 270.7 249.40000000000006 C 269.5 242.5 265.4 235.7 259.6 231.7 z M 223.4 285.7 C 223.4 285.7 220.5 309.7 215 334.4 C 209.6 359.2 203 392 199.1 392.7 C 195.2 393.4 198.1 354.8 204.4 332.59999999999997 C 210.7 310.4 223.7 278.4 223.4 285.7 z" stroke-linecap="round" />
</g>
		<g transform="matrix(1 0 0 1 -92.18 -34.05)"  >
<path style="stroke: none; stroke-width: 1; stroke-dasharray: none; stroke-linecap: butt; stroke-dashoffset: 0; stroke-linejoin: miter; stroke-miterlimit: 4; fill: rgb(0,0,0); fill-rule: nonzero; opacity: 1;" vector-effect="non-scaling-stroke"  transform=" translate(-328.72, -263.57)" d="M 361.6 236.1 C 353.3 232 342.3 238 335.70000000000005 242.9 C 328.50000000000006 248.20000000000002 322.20000000000005 255 317.00000000000006 262.2 C 316.50000000000006 262.9 316.00000000000006 263.7 315.80000000000007 264.5 C 315.6000000000001 265.3 315.70000000000005 266.3 316.20000000000005 267 C 316.70000000000005 267.5 317.40000000000003 267.8 318.1 267.8 C 320.5 268 322.70000000000005 266.2 324.5 264.90000000000003 C 330.6 260.3 336 254.80000000000004 342.2 250.30000000000004 C 349.5 244.80000000000004 351.59999999999997 252.20000000000005 347.3 257.80000000000007 C 343 263.50000000000006 321.7 278.80000000000007 313.5 278.80000000000007 C 305.3 278.80000000000007 306.2 266.9000000000001 308 261.50000000000006 C 309.8 256.1000000000001 302.9 255.30000000000007 298.9 254.90000000000006 C 296 254.60000000000005 294.7 257.00000000000006 293.59999999999997 259.20000000000005 C 293.2 259.90000000000003 292.9 260.70000000000005 292.49999999999994 261.40000000000003 C 291.49999999999994 263.50000000000006 290.59999999999997 265.70000000000005 289.8999999999999 267.90000000000003 C 288.69999999999993 271.8 288.0999999999999 276.40000000000003 289.49999999999994 280.3 C 292.29999999999995 288 299.69999999999993 292.40000000000003 308.79999999999995 292.40000000000003 C 317.9 292.40000000000003 328.99999999999994 288.1 340.4 281.20000000000005 C 345.5 278.1 350.29999999999995 274.40000000000003 354.7 270.30000000000007 C 361.59999999999997 263.9000000000001 370.9 254.60000000000008 368.3 244.40000000000006 C 367.3 241 365 237.8 361.6 236.1 z" stroke-linecap="round" />
</g>
		<g transform="matrix(1 0 0 1 133.12 -34.32)"  >
<path style="stroke: none; stroke-width: 1; stroke-dasharray: none; stroke-linecap: butt; stroke-dashoffset: 0; stroke-linejoin: miter; stroke-miterlimit: 4; fill: rgb(0,0,0); fill-rule: nonzero; opacity: 1;" vector-effect="non-scaling-stroke"  transform=" translate(-554.02, -263.3)" d="M 593.4 244.8 C 592.6 241.8 590.6999999999999 239.10000000000002 588 237.4 C 584.6 235.20000000000002 580.4 234.6 576.4 235.3 C 571.8 236 567.5 238.20000000000002 563.6 240.60000000000002 C 555.8000000000001 245.40000000000003 549 251.8 543.8000000000001 259.3 C 542.8000000000001 260.7 541.9000000000001 262.2 541.5000000000001 263.90000000000003 C 541.2000000000002 265.40000000000003 541.3000000000001 267.3 543.1000000000001 267.90000000000003 C 543.6000000000001 268.1 544.1000000000001 268.1 544.6000000000001 268.1 C 546.1000000000001 267.90000000000003 547.3000000000002 266.90000000000003 548.5000000000001 265.90000000000003 C 552.4000000000001 262.6 556.2000000000002 259.40000000000003 560.1000000000001 256.1 C 562.2000000000002 254.3 564.1000000000001 252.40000000000003 566.4000000000001 250.90000000000003 C 568.4000000000001 249.50000000000003 572.5000000000001 246.80000000000004 574.5000000000001 249.40000000000003 C 575.2000000000002 250.30000000000004 575.4000000000001 251.40000000000003 575.2000000000002 252.50000000000003 C 574.0000000000001 258 569.3000000000002 261.70000000000005 564.9000000000002 265 C 558.7000000000002 269.7 552.5000000000002 274.5 545.3000000000002 277.4 C 543.2000000000002 278.2 541.0000000000002 278.9 538.7000000000002 278.9 C 536.6000000000001 278.9 534.5000000000001 278.2 533.1000000000001 276.7 C 531.4000000000001 274.9 530.9000000000001 272.3 531.1000000000001 269.8 C 531.4000000000001 267.40000000000003 532.3000000000002 265 533.1000000000001 262.7 C 533.5000000000001 261.5 533.9000000000001 260.3 533.7000000000002 259.09999999999997 C 533.4000000000002 256.9 531.1000000000001 256.29999999999995 529.3000000000002 255.69999999999996 C 528.6000000000001 255.39999999999995 527.9000000000002 255.29999999999995 527.1000000000001 255.19999999999996 C 525.7000000000002 254.99999999999997 524.0000000000001 254.59999999999997 522.5000000000001 255.19999999999996 C 521.1000000000001 255.79999999999995 520.2000000000002 257.09999999999997 519.5000000000001 258.4 C 518.9000000000001 259.4 518.4000000000001 260.4 517.9000000000001 261.4 C 517.0000000000001 263.29999999999995 516.2 265.2 515.6000000000001 267.2 C 514.2000000000002 271.7 513.5000000000001 276.7 515.3000000000002 281.09999999999997 C 518.3000000000002 288.2 526.5000000000002 290.99999999999994 533.5000000000002 291.49999999999994 C 543.6000000000003 292.19999999999993 553.2000000000003 288.3999999999999 561.9000000000002 283.69999999999993 C 572.1000000000003 278.0999999999999 581.5000000000002 270.79999999999995 588.3000000000002 261.29999999999995 C 592.1 256.5 594.9 250.6 593.4 244.8 z" stroke-linecap="round" />
</g>
		<g transform="matrix(1 0 0 1 17.43 -64.22)"  >
<path style="stroke: none; stroke-width: 1; stroke-dasharray: none; stroke-linecap: butt; stroke-dashoffset: 0; stroke-linejoin: miter; stroke-miterlimit: 4; fill: rgb(0,0,0); fill-rule: nonzero; opacity: 1;" vector-effect="non-scaling-stroke"  transform=" translate(-438.33, -233.4)" d="M 448.9 283.6 C 433.79999999999995 286.90000000000003 420.7 286 416.5 281.6 C 413.6 278.5 415.9 275.70000000000005 418.6 273.40000000000003 C 425.5 267.6 433.70000000000005 263.6 441.1 258.50000000000006 C 448.3 253.60000000000005 455.20000000000005 248.10000000000005 460.90000000000003 241.50000000000006 C 465.50000000000006 236.20000000000005 459.00000000000006 232.90000000000006 454.3 231.90000000000006 C 448.2 230.50000000000006 441.6 231.40000000000006 435.5 232.60000000000005 C 414.6 236.80000000000004 401.9 254.00000000000006 401.5 251.40000000000006 C 401.1 248.80000000000007 401.1 217.50000000000006 401.1 202.80000000000007 C 401.1 188.10000000000008 401.1 171.00000000000006 397 171.00000000000006 C 392.9 171.00000000000006 390.9 175.10000000000005 389.7 181.20000000000005 C 389.5 182.10000000000005 389.4 183.10000000000005 389.3 184.00000000000006 C 389 189.00000000000006 389.90000000000003 199.00000000000006 390.6 204.00000000000006 C 390.8 205.50000000000006 391 207.00000000000006 391.1 208.50000000000006 C 391.6 215.20000000000005 391.5 222.00000000000006 390.3 228.60000000000005 C 388.5 239.10000000000005 385.3 249.80000000000004 380.6 259.40000000000003 C 376.40000000000003 268.00000000000006 374.6 279.3 375.70000000000005 288.8 C 375.80000000000007 289.40000000000003 375.90000000000003 290.1 376.20000000000005 290.6 C 376.6 291.20000000000005 377.40000000000003 291.40000000000003 378.1 291.6 C 381.70000000000005 292.6 385.20000000000005 292.20000000000005 388.8 292.20000000000005 C 390.8 292.20000000000005 392.6 291.30000000000007 394.3 290.40000000000003 C 395.5 289.70000000000005 398.1 287.6 399.6 288.00000000000006 C 399.90000000000003 288.1000000000001 400.1 288.30000000000007 400.40000000000003 288.40000000000003 C 400.90000000000003 288.8 401.50000000000006 289.1 402.00000000000006 289.40000000000003 C 412.20000000000005 295.40000000000003 425.00000000000006 295.8 436.50000000000006 295.8 C 469.50000000000006 295.8 504.00000000000006 283.2 501.1 276.3 C 498.3 269.5 464 280.3 448.9 283.6 z M 423.9 251.7 C 426.09999999999997 250.2 428.4 248.7 430.9 247.5 C 432.9 246.5 435.7 245.2 437.9 245.8 C 438.2 245.9 438.5 246.10000000000002 438.59999999999997 246.5 C 438.7 247.1 438.09999999999997 247.6 437.49999999999994 247.8 C 433.79999999999995 249.60000000000002 430.09999999999997 251.5 426.59999999999997 253.60000000000002 C 418.79999999999995 258.20000000000005 411.59999999999997 263.6 403.9 268.40000000000003 C 399.5 271.1 409.8 261.4 423.9 251.7 z" stroke-linecap="round" />
</g>
		<g transform="matrix(1 0 0 1 218.06 -87.62)"  >
<path style="stroke: none; stroke-width: 1; stroke-dasharray: none; stroke-linecap: butt; stroke-dashoffset: 0; stroke-linejoin: miter; stroke-miterlimit: 4; fill: rgb(164,194,60); fill-rule: nonzero; opacity: 1;" vector-effect="non-scaling-stroke"  transform=" translate(-638.95, -210)" d="M 628.1 201.9 C 628.5 201.20000000000002 629 200.6 629.5 200 C 635.2 194.3 645.7 197.4 649.9 203.4 C 654.9 210.5 643.9 226.3 635.5 222.4 C 633.2 221.3 631.5 219.20000000000002 630.1 217 C 628.5 214.4 627.1 211.6 626.8000000000001 208.5 C 626.6 206.2 627 203.8 628.1 201.9 z" stroke-linecap="round" />
</g>
		<g transform="matrix(1 0 0 1 208.15 -35.22)"  >
<path style="stroke: none; stroke-width: 1; stroke-dasharray: none; stroke-linecap: butt; stroke-dashoffset: 0; stroke-linejoin: miter; stroke-miterlimit: 4; fill: rgb(164,194,60); fill-rule: nonzero; opacity: 1;" vector-effect="non-scaling-stroke"  transform=" translate(-629.05, -262.4)" d="M 620.4 262.5 C 620.4 262.2 620.5 261.8 620.6 261.5 C 621.7 256.8 627.7 252.2 632.7 253.2 C 637 254 638.5 260.09999999999997 637.4000000000001 265.09999999999997 C 636.3000000000001 270.2 629.8000000000001 273.2 625.1000000000001 270.99999999999994 C 621.9 269.5 620 265.9 620.4 262.5 z" stroke-linecap="round" />
</g>
		<g transform="matrix(1 0 0 1 231.52 -31.29)"  >
<path style="stroke: none; stroke-width: 1; stroke-dasharray: none; stroke-linecap: butt; stroke-dashoffset: 0; stroke-linejoin: miter; stroke-miterlimit: 4; fill: rgb(164,194,60); fill-rule: nonzero; opacity: 1;" vector-effect="non-scaling-stroke"  transform=" translate(-652.41, -266.33)" d="M 675.4 175.1 C 675 174.6 674.5 174.1 674.1 173.7 C 671.7 171.2 668.6 167.7 670.7 164 C 676 154.8 687 169.6 689.7 173.9 C 696.4000000000001 184.6 699.8000000000001 196.70000000000002 700.8000000000001 209.2 C 702.5000000000001 229.2 698.9000000000001 249.2 691.9000000000001 267.9 C 691.2 269.79999999999995 690.4000000000001 271.79999999999995 689.6000000000001 273.7 C 682.3000000000002 291.5 671.8000000000002 308 660.3000000000002 323.5 C 649.4000000000002 338.3 637.5000000000002 352.5 623.8000000000002 364.7 C 621.0000000000002 367.2 617.9000000000002 369.5 614.3000000000002 370.8 C 611.1000000000001 372 607.3000000000002 372 604.4000000000002 370.1 C 604.2000000000002 369.90000000000003 603.9000000000002 369.8 603.8000000000002 369.5 C 603.5000000000002 369 603.6000000000001 368.4 603.8000000000002 367.9 C 605.5000000000002 362.59999999999997 610.0000000000002 359.2 614.0000000000002 355.59999999999997 C 618.3000000000002 351.79999999999995 622.6000000000003 347.9 626.7000000000003 343.9 C 640.2000000000003 330.5 651.7000000000003 315.29999999999995 662.1000000000003 299.5 C 672.0000000000002 284.4 679.9000000000002 267.8 684.1000000000003 250.2 C 686.2000000000003 241.39999999999998 687.4000000000002 232.29999999999998 687.7000000000003 223.29999999999998 C 688.0000000000002 214.2 688.2000000000003 204.49999999999997 686.1000000000003 195.6 C 684.2 188.1 680.5 180.9 675.4 175.1 z" stroke-linecap="round" />
</g>
</g>
</g>
</svg>